<svg width="19" height="28" viewBox="0 0 19 28" fill="none" xmlns="http://www.w3.org/2000/svg">
<path d="M15.3182 2H3.68182C2.47727 2 1.5 3.00781 1.5 4.25V23.75C1.5 24.9922 2.47727 26 3.68182 26H15.3182C16.5227 26 17.5 24.9922 17.5 23.75V4.25C17.5 3.00781 16.5227 2 15.3182 2ZM11.6818 22.9578C11.6818 23.4125 11.3545 23.75 10.9545 23.75H8.00455C7.64545 23.75 7.31818 23.4125 7.31818 23C7.31818 22.5875 7.64545 22.25 8.04545 22.25H10.9545C11.3545 22.25 11.6818 22.5875 11.6818 22.9578ZM14.5909 20H4.40909V5H14.5909V20Z" fill="#02897A"/>
</svg>
