<svg width="107" height="18" viewBox="0 0 107 18" fill="none" xmlns="http://www.w3.org/2000/svg">
<path d="M18.7273 6.46146C18.6699 6.29487 18.5642 6.1485 18.4232 6.0404C18.2822 5.93231 18.1122 5.86722 17.9341 5.85319L12.7247 5.44558L10.4703 0.531754C10.3986 0.37349 10.2818 0.239068 10.1341 0.144711C9.98645 0.050354 9.81421 9.52702e-05 9.63818 1.35311e-07C9.46215 -9.49996e-05 9.28985 0.0499776 9.14209 0.144175C8.99432 0.238372 8.87739 0.372668 8.80542 0.530855L6.55111 5.44558L1.34162 5.85319C1.16659 5.86684 0.99926 5.92986 0.859649 6.03471C0.720038 6.13955 0.614058 6.28178 0.554388 6.44439C0.494718 6.60699 0.483885 6.78308 0.523184 6.95158C0.562483 7.12009 0.650251 7.27388 0.775987 7.39455L4.62577 11.09L3.26423 16.8956C3.22288 17.0713 3.23613 17.2552 3.30226 17.4234C3.36838 17.5917 3.48432 17.7364 3.63504 17.839C3.78576 17.9415 3.9643 17.997 4.14748 17.9984C4.33066 17.9998 4.51003 17.9469 4.66232 17.8467L9.63788 14.5804L14.6134 17.8467C14.7691 17.9484 14.9527 18.0008 15.1395 17.9968C15.3262 17.9927 15.5073 17.9325 15.6583 17.8241C15.8092 17.7157 15.9229 17.5644 15.9839 17.3905C16.0449 17.2166 16.0504 17.0285 15.9997 16.8515L14.3283 11.0927L18.4733 7.41975C18.7447 7.1786 18.8443 6.80248 18.7273 6.46146Z" fill="#F3CD03"/>
<path d="M40.6587 6.46146C40.6013 6.29487 40.4956 6.1485 40.3546 6.0404C40.2136 5.93231 40.0436 5.86722 39.8655 5.85319L34.656 5.44558L32.4017 0.531754C32.3299 0.37349 32.2132 0.239068 32.0655 0.144711C31.9178 0.050354 31.7456 9.52702e-05 31.5696 1.35311e-07C31.3935 -9.49996e-05 31.2213 0.0499776 31.0735 0.144175C30.9257 0.238372 30.8088 0.372668 30.7368 0.530855L28.4825 5.44558L23.273 5.85319C23.098 5.86684 22.9307 5.92986 22.791 6.03471C22.6514 6.13955 22.5455 6.28178 22.4858 6.44439C22.4261 6.60699 22.4153 6.78308 22.4546 6.95158C22.4939 7.12009 22.5816 7.27388 22.7074 7.39455L26.5572 11.09L25.1956 16.8956C25.1543 17.0713 25.1675 17.2552 25.2337 17.4234C25.2998 17.5917 25.4157 17.7364 25.5664 17.839C25.7172 17.9415 25.8957 17.997 26.0789 17.9984C26.2621 17.9998 26.4414 17.9469 26.5937 17.8467L31.5693 14.5804L36.5448 17.8467C36.7005 17.9484 36.8841 18.0008 37.0708 17.9968C37.2576 17.9927 37.4387 17.9325 37.5897 17.8241C37.7406 17.7157 37.8543 17.5644 37.9153 17.3905C37.9763 17.2166 37.9818 17.0285 37.9311 16.8515L36.2597 11.0927L40.4047 7.41975C40.6761 7.1786 40.7757 6.80248 40.6587 6.46146Z" fill="#F3CD03"/>
<path d="M62.5867 6.46146C62.5293 6.29487 62.4235 6.1485 62.2826 6.0404C62.1416 5.93231 61.9716 5.86722 61.7935 5.85319L56.584 5.44558L54.3297 0.531754C54.2579 0.37349 54.1411 0.239068 53.9935 0.144711C53.8458 0.050354 53.6736 9.52702e-05 53.4976 1.35311e-07C53.3215 -9.49996e-05 53.1492 0.0499776 53.0015 0.144175C52.8537 0.238372 52.7368 0.372668 52.6648 0.530855L50.4105 5.44558L45.201 5.85319C45.026 5.86684 44.8586 5.92986 44.719 6.03471C44.5794 6.13955 44.4734 6.28178 44.4138 6.44439C44.3541 6.60699 44.3433 6.78308 44.3826 6.95158C44.4219 7.12009 44.5096 7.27388 44.6354 7.39455L48.4851 11.09L47.1236 16.8956C47.0823 17.0713 47.0955 17.2552 47.1616 17.4234C47.2278 17.5917 47.3437 17.7364 47.4944 17.839C47.6451 17.9415 47.8237 17.997 48.0069 17.9984C48.19 17.9998 48.3694 17.9469 48.5217 17.8467L53.4973 14.5804L58.4728 17.8467C58.6285 17.9484 58.812 18.0008 58.9988 17.9968C59.1856 17.9927 59.3667 17.9325 59.5176 17.8241C59.6686 17.7157 59.7823 17.5644 59.8433 17.3905C59.9043 17.2166 59.9098 17.0285 59.859 16.8515L58.1877 11.0927L62.3327 7.41975C62.604 7.1786 62.7037 6.80248 62.5867 6.46146Z" fill="#F3CD03"/>
<path d="M84.52 6.46146C84.4626 6.29487 84.3569 6.1485 84.2159 6.0404C84.075 5.93231 83.905 5.86722 83.7269 5.85319L78.5174 5.44558L76.2631 0.531754C76.1913 0.37349 76.0745 0.239068 75.9268 0.144711C75.7792 0.050354 75.6069 9.52702e-05 75.4309 1.35311e-07C75.2549 -9.49996e-05 75.0826 0.0499776 74.9348 0.144175C74.787 0.238372 74.6701 0.372668 74.5981 0.530855L72.3438 5.44558L67.1343 5.85319C66.9593 5.86684 66.792 5.92986 66.6524 6.03471C66.5128 6.13955 66.4068 6.28178 66.3471 6.44439C66.2874 6.60699 66.2766 6.78308 66.3159 6.95158C66.3552 7.12009 66.443 7.27388 66.5687 7.39455L70.4185 11.09L69.057 16.8956C69.0156 17.0713 69.0289 17.2552 69.095 17.4234C69.1611 17.5917 69.277 17.7364 69.4278 17.839C69.5785 17.9415 69.757 17.997 69.9402 17.9984C70.1234 17.9998 70.3028 17.9469 70.455 17.8467L75.4306 14.5804L80.4062 17.8467C80.5618 17.9484 80.7454 18.0008 80.9322 17.9968C81.119 17.9927 81.3 17.9325 81.451 17.8241C81.602 17.7157 81.7156 17.5644 81.7766 17.3905C81.8377 17.2166 81.8432 17.0285 81.7924 16.8515L80.1211 11.0927L84.266 7.41975C84.5374 7.1786 84.637 6.80248 84.52 6.46146Z" fill="#F3CD03"/>
<path d="M92.351 11.0901L90.9895 16.8956C90.9473 17.0714 90.96 17.2556 91.0258 17.4242C91.0916 17.5928 91.2076 17.738 91.3585 17.8407C91.5094 17.9434 91.6882 17.9989 91.8716 18C92.0551 18.0011 92.2346 17.9476 92.3867 17.8467L97.3622 14.5804L102.338 17.8467C102.493 17.9485 102.677 18.0009 102.864 17.9968C103.051 17.9928 103.232 17.9325 103.383 17.8241C103.534 17.7158 103.647 17.5644 103.708 17.3906C103.769 17.2167 103.775 17.0286 103.724 16.8515L102.053 11.0928L106.198 7.41979C106.33 7.30208 106.425 7.14864 106.47 6.97844C106.515 6.80824 106.509 6.62875 106.452 6.46216C106.394 6.29557 106.289 6.14919 106.148 6.04113C106.007 5.93306 105.837 5.86805 105.659 5.85413L100.449 5.44562L98.1947 0.531792C98.1228 0.373567 98.006 0.239208 97.8583 0.144931C97.7105 0.0506541 97.5383 0.000488281 97.3622 0.000488281C97.1862 0.000488281 97.014 0.0506541 96.8662 0.144931C96.7185 0.239208 96.6017 0.373567 96.5298 0.531792L94.2755 5.44562L89.066 5.85323C88.891 5.86688 88.7236 5.9299 88.584 6.03475C88.4444 6.13959 88.3384 6.28182 88.2788 6.44442C88.2191 6.60703 88.2082 6.78311 88.2475 6.95162C88.2868 7.12013 88.3746 7.27391 88.5004 7.39459L92.351 11.0901ZM94.9581 7.19753C95.1212 7.18488 95.2778 7.12925 95.4116 7.03648C95.5454 6.94371 95.6513 6.81721 95.7183 6.67025L97.3622 3.08813L99.0061 6.67025C99.0732 6.81721 99.1791 6.94371 99.3129 7.03648C99.4467 7.12925 99.6033 7.18488 99.7664 7.19753L103.396 7.48097L100.407 10.13C100.147 10.3603 100.044 10.7149 100.139 11.046L101.284 14.9916L97.8703 12.7502C97.7205 12.6512 97.5441 12.5983 97.3636 12.5983C97.1832 12.5983 97.0068 12.6512 96.8569 12.7502L93.2895 15.0924L94.249 11.0019C94.2842 10.8515 94.2794 10.6946 94.2353 10.5465C94.1911 10.3984 94.109 10.2639 93.9968 10.1561L91.2207 7.49087L94.9581 7.19753Z" fill="#F3CD03"/>
</svg>
